{"title":"Qayamat City Under Threat (2003) DVDRip 720p x264 AAC [ TaRa  ].","uid":15506812,"size":1196695070,"categoryP":"video","categoryS":"movies_dvdr","magnet":"?xt=urn:btih:e2b7cdf7e23ce5764e03cf25fbcf71ca8b523a25&amp;dn=Qayamat+City+Under+Threat+%282003%29+DVDRip+720p+x264+AAC+%5B+TaRa++%5D.&amp;tr=udp%3A%2F%2Ftracker.leechers-paradise.org%3A6969&amp;tr=udp%3A%2F%2Fzer0day.ch%3A1337&amp;tr=udp%3A%2F%2Fopen.demonii.com%3A1337&amp;tr=udp%3A%2F%2Ftracker.coppersurfer.tk%3A6969&amp;tr=udp%3A%2F%2Fexodus.desync.com%3A6969","seeders":0,"leechers":1,"uploader":"MdTaRa","files":1,"time":1470599006,"description":"========================================================================\r\nGeneral\r\nComplete name               : K:HD MOVIEQayamat City Under Threat (2003) DVDRip 720p x264 AAC [ TaRa  ].mkv\r\nFormat                      : Matroska\r\nFormat version              : Version 4 / Version 2\r\nFile size                   : 1.11 GiB\r\nDuration                    : 2 h 34 min\r\nOverall bit rate mode       : Variable\r\nOverall bit rate            : 1 032 kb/s\r\n=======================================================================\r\nVideo\r\nID                          : 1\r\nFormat                      : AVC\r\nFormat/Info                 : Advanced Video Codec\r\nFormat profile              :   \r\nFormat settings, CABAC      : Yes\r\nFormat settings, ReFrames   : 3 frames\r\nCodec ID                    : V_MPEG4/ISO/AVC\r\nDuration                    : 2 h 34 min\r\nBit rate mode               : Variable\r\nBit rate                    : 838 kb/s\r\nMaximum bit rate            : 40.0 Mb/s\r\nWidth                       : 1 280 pixels\r\nHeight                      : 544 pixels\r\nDisplay aspect ratio        : 2.35:1\r\nFrame rate mode             : Constant\r\nFrame rate                  : 25.000 FPS\r\nColor space                 : YUV\r\nChroma subsampling          : 4:2:0\r\nBit depth                   : 8 bits\r\nScan type                   : Progressive\r\nBits/(Pixel*Frame)          : 0.048\r\nStream size                 : 927 MiB (81%)\r\nTitle                       : .....::::: TaRa :::::.....\r\nLanguage                    : Hindi\r\nDefault                     : Yes\r\nForced                      : No\r\n=======================================================================\r\nAudio\r\nID                          : 2\r\nFormat                      : AAC\r\nFormat/Info                 : Advanced Audio Codec\r\nFormat profile              : LC\r\nCodec ID                    : A_AAC\r\nDuration                    : 2 h 34 min\r\nBit rate                    : 192 kb/s\r\nChannel(s)                  : 2 channels\r\nChannel positions           : Front: L R\r\nSampling rate               : 44.1 kHz\r\nFrame rate                  : 43.066 FPS (1024 spf)\r\nCompression mode            : Lossy\r\nDelay relative to video     : 10 ms\r\nStream size                 : 212 MiB (19%)\r\nTitle                       : .....::::: TaRa :::::.....\r\nLanguage                    : Hindi\r\nDefault                     : Yes\r\nForced                      : No\r\n========================================================================= \nhttp://imgur.com/fcN0pPq \nhttp://imgur.com/zcZmvtC","torrent":{"xt":"urn:btih:e2b7cdf7e23ce5764e03cf25fbcf71ca8b523a25","amp;dn":"Qayamat+City+Under+Threat+%282003%29+DVDRip+720p+x264+AAC+%5B+TaRa++%5D.","amp;tr":["udp%3A%2F%2Ftracker.leechers-paradise.org%3A6969","udp%3A%2F%2Fzer0day.ch%3A1337","udp%3A%2F%2Fopen.demonii.com%3A1337","udp%3A%2F%2Ftracker.coppersurfer.tk%3A6969","udp%3A%2F%2Fexodus.desync.com%3A6969"],"infoHash":"e2b7cdf7e23ce5764e03cf25fbcf71ca8b523a25","infoHashBuffer":{"type":"Buffer","data":[226,183,205,247,226,60,229,118,78,3,207,37,251,207,113,202,139,82,58,37]},"announce":[],"urlList":[]}}